<svg width="48" height="48" viewBox="0 0 48 48" fill="none" xmlns="http://www.w3.org/2000/svg">
<path d="M15.879 44C13.745 44 12 42.255 12 40.121V15.879C12 13.745 13.745 12 15.879 12H40.121C42.255 12 44 13.745 44 15.879V40.121C44 42.255 42.255 44 40.121 44H15.879Z" fill="#FFE082"/>
<path d="M7.5 28.559V11.5C7.5 9.3 9.3 7.5 11.5 7.5H36.5C38.7 7.5 40.5 9.3 40.5 11.5V12.745" stroke="#18193F" stroke-width="3" stroke-miterlimit="10" stroke-linecap="round"/>
<path d="M40.5 18.6169V36.4999C40.5 38.6999 38.7 40.4999 36.5 40.4999H11.5C9.3 40.4999 7.5 38.6999 7.5 36.4999V34.7449" stroke="#18193F" stroke-width="3" stroke-miterlimit="10" stroke-linecap="round"/>
<path d="M29.2711 32.389C29.9001 33.415 30.5831 34.398 32.0291 34.398C33.2441 34.398 33.8821 33.791 33.8821 32.952C33.8821 31.947 33.2231 31.59 31.8861 31.006L31.1531 30.692C29.0381 29.791 27.6311 28.661 27.6311 26.274C27.6311 24.075 29.3061 22.401 31.9251 22.401C33.7891 22.401 35.1291 23.05 36.0951 24.749L33.8121 26.215C33.3091 25.314 32.7671 24.959 31.9251 24.959C31.0661 24.959 30.5221 25.504 30.5221 26.215C30.5221 27.095 31.0671 27.451 32.3251 27.995L33.0581 28.309C35.5501 29.376 36.9561 30.465 36.9561 32.914C36.9561 35.554 34.8821 37 32.0971 37C29.3741 37 27.8271 35.627 26.9661 33.926L29.2711 32.389Z" fill="#18193F"/>
<path d="M18.623 32.464C19.089 33.291 19.799 33.926 20.818 33.926C21.793 33.926 22.355 33.545 22.355 32.062V22.4H25.429V32.529C25.429 35.601 23.628 37 20.998 37C18.622 37 16.907 35.407 16.208 33.926L18.623 32.464Z" fill="#18193F"/>
</svg>
