<svg width="48" height="48" viewBox="0 0 48 48" fill="none" xmlns="http://www.w3.org/2000/svg">
<path d="M28 46C37.9411 46 46 37.9411 46 28C46 18.0589 37.9411 10 28 10C18.0589 10 10 18.0589 10 28C10 37.9411 18.0589 46 28 46Z" fill="#9FA8DA"/>
<path d="M35.054 38.836C31.97 41.137 28.144 42.5 24 42.5C13.783 42.5 5.5 34.217 5.5 24C5.5 21.083 6.175 18.324 7.378 15.87" stroke="#18193F" stroke-width="3" stroke-linecap="round" stroke-linejoin="round"/>
<path d="M13.8689 8.518C16.7789 6.61 20.2599 5.5 23.9999 5.5C34.2169 5.5 42.4999 13.783 42.4999 24C42.4999 26.941 41.8139 29.721 40.5929 32.19" stroke="#18193F" stroke-width="3" stroke-linecap="round" stroke-linejoin="round"/>
<path d="M34 23C34 21.426 33.424 19.962 32.442 18.725C32.884 17.357 33.372 14.954 32.2 13.077C29.949 13.077 28.47 14.622 27.764 15.591C26.602 15.213 25.333 15 24 15C22.667 15 21.398 15.213 20.236 15.591C19.53 14.622 18.052 13.077 15.8 13.077C14.472 15.203 15.274 17.527 15.727 18.507C14.638 19.788 14 21.334 14 23C14 26.78 17.281 29.94 21.686 30.776C20.377 31.449 19.399 32.672 19.099 34.156H17.784C16.487 34.156 15.983 33.63 15.282 32.741C14.59 31.852 13.845 31.253 12.951 31.005C12.469 30.954 12.145 31.321 12.565 31.646C13.984 32.612 14.081 34.194 14.65 35.229C15.168 36.161 16.229 37 17.429 37H19V42.942H29V35.136C29 33.228 27.902 31.592 26.314 30.776C30.719 29.94 34 26.78 34 23Z" fill="#18193F"/>
</svg>
