<svg width="48" height="48" viewBox="0 0 48 48" fill="none" xmlns="http://www.w3.org/2000/svg">
<path d="M27.0149 46.5069L9.49296 28.9859C8.94896 28.4419 8.94896 27.5599 9.49296 27.0169L27.0149 9.49394C27.559 8.94994 28.441 8.94994 28.9839 9.49394L46.5069 27.0159C47.0509 27.5599 47.0509 28.4419 46.5069 28.9849L28.985 46.5069C28.441 47.0499 27.559 47.0499 27.0149 46.5069Z" fill="#FF8282"/>
<path d="M28.9159 38.5759L24.9849 42.5079C24.4409 43.0509 23.5589 43.0509 23.0149 42.5079L5.49296 24.9859C4.94896 24.4419 4.94896 23.5599 5.49296 23.0169L14.51 13.9989" stroke="#18193F" stroke-width="3" stroke-miterlimit="10" stroke-linecap="round" stroke-linejoin="round"/>
<path d="M18.6189 9.88994L23.0149 5.49394C23.5589 4.94994 24.4409 4.94994 24.9839 5.49394L42.5069 23.0159C43.0509 23.5599 43.0509 24.4419 42.5069 24.9849L33.1289 34.3639" stroke="#18193F" stroke-width="3" stroke-miterlimit="10" stroke-linecap="round" stroke-linejoin="round"/>
<path d="M23.9998 35.6399C25.607 35.6399 26.9098 34.3371 26.9098 32.7299C26.9098 31.1228 25.607 29.8199 23.9998 29.8199C22.3927 29.8199 21.0898 31.1228 21.0898 32.7299C21.0898 34.3371 22.3927 35.6399 23.9998 35.6399Z" fill="#18193F"/>
<path d="M32.7298 26.9109C34.337 26.9109 35.6398 25.6081 35.6398 24.0009C35.6398 22.3938 34.337 21.0909 32.7298 21.0909C31.1227 21.0909 29.8198 22.3938 29.8198 24.0009C29.8198 25.6081 31.1227 26.9109 32.7298 26.9109Z" fill="#18193F"/>
<path d="M23.9998 18.181C25.607 18.181 26.9098 16.8781 26.9098 15.271C26.9098 13.6638 25.607 12.361 23.9998 12.361C22.3927 12.361 21.0898 13.6638 21.0898 15.271C21.0898 16.8781 22.3927 18.181 23.9998 18.181Z" fill="#18193F"/>
<path d="M24 32.7299V15.2709" stroke="#18193F" stroke-width="3" stroke-miterlimit="10" stroke-linecap="round" stroke-linejoin="round"/>
<path d="M32.7299 24.001L18.6199 9.89099" stroke="#18193F" stroke-width="3" stroke-miterlimit="10" stroke-linecap="round" stroke-linejoin="round"/>
</svg>
