<svg width="48" height="48" viewBox="0 0 48 48" fill="none" xmlns="http://www.w3.org/2000/svg">
<path d="M40.8809 11.129H15.1189C13.9919 11.129 13.1039 12.09 13.1929 13.213L15.4029 41.143C15.4629 41.901 15.9619 42.553 16.6769 42.809L27.3469 46.633C27.7679 46.784 28.2289 46.784 28.6499 46.633L39.3199 42.809C40.0349 42.553 40.5339 41.901 40.5939 41.143L42.8039 13.213C42.8949 12.09 42.0079 11.129 40.8809 11.129Z" fill="#FFB582"/>
<path d="M37.7869 28.147L39.3289 8.658C39.4209 7.495 38.5019 6.5 37.3349 6.5H10.6649C9.4979 6.5 8.5789 7.495 8.6709 8.658L9.2349 15.791" stroke="#18193F" stroke-width="3" stroke-miterlimit="10" stroke-linecap="round" stroke-linejoin="round"/>
<path d="M9.75879 22.415L10.9588 37.574C11.0208 38.358 11.5368 39.034 12.2778 39.299L23.3248 43.258C23.7608 43.414 24.2378 43.414 24.6738 43.258L35.7208 39.299C36.4618 39.034 36.9778 38.358 37.0398 37.574L37.3208 34.023" stroke="#18193F" stroke-width="3" stroke-miterlimit="10" stroke-linecap="round" stroke-linejoin="round"/>
<path d="M31.3708 16H18.2198L18.6598 22H31.4428C32.0238 22 32.4828 22.494 32.4398 23.074L31.7088 32.948C31.6788 33.354 31.4048 33.702 31.0168 33.826L24.2998 35.981C24.0978 36.046 23.8818 36.045 23.6808 35.978L17.1538 33.82C16.7698 33.693 16.5008 33.348 16.4708 32.945L16.2208 29.612C16.1558 28.742 16.8438 28 17.7168 28C18.5028 28 19.1548 28.606 19.2128 29.39L19.3608 31.39L24.0108 32.92L28.8208 31.38L29.2898 25H16.8078C16.2848 25 15.8498 24.597 15.8108 24.075L15.0608 14.075C15.0168 13.495 15.4758 13 16.0578 13H31.3708C32.2448 13 32.9328 13.744 32.8668 14.615C32.8058 15.396 32.1548 16 31.3708 16Z" fill="#18193F"/>
</svg>
