<svg width="48" height="48" viewBox="0 0 48 48" fill="none" xmlns="http://www.w3.org/2000/svg">
<path d="M40.971 11.004H15.029C13.894 11.004 13 11.971 13.09 13.103L15.316 41.229C15.376 41.992 15.879 42.649 16.599 42.907L27.344 46.758C27.768 46.91 28.232 46.91 28.657 46.758L39.402 42.907C40.122 42.649 40.625 41.992 40.685 41.229L42.911 13.103C43 11.971 42.106 11.004 40.971 11.004Z" fill="#90CAF9"/>
<path d="M9.4729 18.79L10.9589 37.575C11.0209 38.359 11.5369 39.035 12.2779 39.3L23.3249 43.259C23.7609 43.415 24.2379 43.415 24.6739 43.259L35.7209 39.3C36.4619 39.035 36.9779 38.359 37.0399 37.575L37.3839 33.225" stroke="#18193F" stroke-width="3" stroke-miterlimit="10" stroke-linecap="round" stroke-linejoin="round"/>
<path d="M37.9589 25.968L39.3289 8.658C39.4209 7.495 38.5019 6.5 37.3349 6.5H10.6649C9.4979 6.5 8.5789 7.495 8.6709 8.658L8.9479 12.163" stroke="#18193F" stroke-width="3" stroke-miterlimit="10" stroke-linecap="round" stroke-linejoin="round"/>
<path d="M17.702 13.439H32.149L31.198 32.219L24.543 34.561L17.616 31.927V29.683" stroke="#18193F" stroke-width="3" stroke-miterlimit="10" stroke-linecap="round" stroke-linejoin="round"/>
<path d="M20.374 23.004H31.676" stroke="#18193F" stroke-width="3" stroke-miterlimit="10" stroke-linecap="round" stroke-linejoin="round"/>
</svg>
